<svg width="64" height="58" viewBox="0 0 64 58" fill="none" xmlns="http://www.w3.org/2000/svg">
<rect x="1.2" y="36.9657" width="11.4545" height="20.3072" rx="2" fill="#333333"/>
<rect x="15.2" y="29.3505" width="11.4545" height="27.9224" rx="2" fill="#333333"/>
<rect x="29.2" y="24.2734" width="11.4545" height="32.9992" rx="2" fill="#333333"/>
<rect x="43.2" y="19.1965" width="11.4545" height="38.076" rx="2" fill="#333333"/>
<path d="M1.06741 28.8504C0.519999 28.9237 0.135599 29.4268 0.208826 29.9742C0.282053 30.5216 0.785177 30.906 1.33259 30.8328L1.06741 28.8504ZM44.4727 10.8036L32.9631 11.7315L39.5215 21.2352L44.4727 10.8036ZM1.33259 30.8328C7.80347 29.9672 22.7781 25.9991 37.5961 16.7627L36.5382 15.0655C21.9764 24.1421 7.27516 28.02 1.06741 28.8504L1.33259 30.8328Z" fill="#333333"/>
<ellipse cx="54.6545" cy="8.32914" rx="8.90909" ry="8.32914" fill="#333333"/>
<path d="M57.9954 9.71143C57.9954 10.3069 57.7801 10.8279 57.3495 11.2745C56.9259 11.714 56.3188 12.0046 55.5282 12.1464V13.3266H54.0351V12.1995C53.5056 12.1712 52.9973 12.0897 52.5102 11.955C52.0302 11.8203 51.6313 11.6537 51.3136 11.4552L52.1184 9.62637C52.4714 9.83194 52.8667 9.99852 53.3044 10.1261C53.7421 10.2466 54.1621 10.3069 54.5645 10.3069C54.9104 10.3069 55.1575 10.275 55.3058 10.2112C55.454 10.1403 55.5282 10.0375 55.5282 9.90282C55.5282 9.74687 55.4293 9.62991 55.2317 9.55194C55.041 9.47396 54.7234 9.3889 54.2786 9.29674C53.7068 9.17624 53.2303 9.04864 52.8491 8.91396C52.4679 8.77219 52.1361 8.54535 51.8537 8.23345C51.5713 7.91446 51.4301 7.4856 51.4301 6.94686C51.4301 6.32307 51.6525 5.78787 52.0972 5.34129C52.549 4.89471 53.195 4.61116 54.0351 4.49066V3.33167H55.5282V4.46939C56.3753 4.54736 57.0918 4.75294 57.6778 5.0861L56.9259 6.90433C56.1988 6.53572 55.5105 6.35142 54.861 6.35142C54.2186 6.35142 53.8974 6.50737 53.8974 6.81927C53.8974 6.96813 53.9927 7.08155 54.1833 7.15952C54.3739 7.23041 54.6881 7.30838 55.1258 7.39345C55.6905 7.49978 56.167 7.62383 56.5553 7.7656C56.9436 7.90028 57.2789 8.12358 57.5613 8.43548C57.8507 8.74738 57.9954 9.17269 57.9954 9.71143Z" fill="white"/>
</svg>
